<svg width="841.9" height="318" xmlns="http://www.w3.org/2000/svg" xmlns:svg="http://www.w3.org/2000/svg">
 <style type="text/css">
	.st0{fill:#FFFFFF;}
	.st1{fill:#231F20;}
	.st2{fill:#414142;}
	.st3{fill:#FFFFFF;}
	.st4{fill:none;stroke:#231F20;stroke-width:5;stroke-miterlimit:10;}</style>
 <g>
  <title>Layer 1</title>
  <g stroke="null" id="svg_346">
   <path stroke="null" id="svg_307" d="m216.36869,218.13064l-21.51889,0l0,-183.59154l21.51889,28.05627l0,155.53527z" class="st0"/>
   <path stroke="null" id="svg_309" d="m367.8181,218.13064l-23.42563,0l-149.54267,-210.01347l26.14954,0l125.29987,176.23699l0,-176.23699l21.51889,0l0,210.01347z" class="st0"/>
   <path stroke="null" id="svg_311" d="m682.9745,218.13064l-22.06367,0l-59.10885,-174.87503l-59.10885,174.87503l-22.06367,0l70.27688,-210.01347l21.51889,0l70.54927,210.01347z" class="st0"/>
   <path stroke="null" id="svg_314" d="m31.4152,307.74728l-5.9926,0l0,-19.88454c-1.36196,-0.27239 -2.45152,-1.08956 -3.26869,-2.17913c-1.08956,-1.08956 -2.45152,-3.26869 -4.08587,-6.53738l-11.16803,-20.42933l6.80978,0l10.89564,20.15693c1.90674,3.54108 2.17913,3.54108 3.81347,3.54108c1.63435,0 2.17913,-0.27239 3.81347,-3.54108l10.89564,-20.15693l6.80978,0l-11.16803,20.42933c-1.63435,2.9963 -2.9963,5.17543 -4.08587,6.53738c-1.08956,1.08956 -2.17913,1.63435 -3.26869,2.17913l0,19.88454z" class="st0"/>
   <path stroke="null" id="svg_315" d="m60.56103,308.29207c-5.72021,0 -9.80608,-1.36196 -12.2576,-4.08587c-2.45152,-2.72391 -3.81347,-6.53738 -3.81347,-11.44042l0,-7.08217c0,-10.62325 5.17543,-15.79868 16.07107,-15.79868c10.89564,0 16.07107,5.17543 16.07107,15.79868l0,7.08217c0,4.90304 -1.08956,8.71651 -3.54108,11.44042c-2.72391,2.72391 -6.80978,4.08587 -12.52999,4.08587zm0,-32.95931c-7.62695,0 -10.07847,2.45152 -10.07847,10.07847l0,7.08217c0,3.54108 0.81717,6.26499 2.17913,7.62695c1.36196,1.63435 4.08587,2.45152 8.17173,2.45152c3.81347,0 6.53738,-0.81717 8.17173,-2.45152c1.36196,-1.63435 2.17913,-4.08587 2.17913,-7.62695l0,-7.08217c-0.54478,-7.35456 -2.9963,-10.07847 -10.62325,-10.07847z" class="st0"/>
   <path stroke="null" id="svg_316" d="m96.24426,308.29207c-10.07847,0 -15.2539,-4.63065 -15.2539,-13.89194l0,-23.97041l5.72021,0l0,23.97041c0,5.17543 1.63435,8.44412 9.53369,8.44412c7.89934,0 9.53369,-2.9963 9.53369,-8.44412l0,-23.97041l5.72021,0l0,23.97041c0,9.26129 -5.17543,13.89194 -15.2539,13.89194z" class="st0"/>
   <path stroke="null" id="svg_317" d="m122.66619,307.74728l-5.72021,0l0,-24.78758c0,-10.89564 6.53738,-13.34716 11.71281,-13.34716c1.90674,0 3.26869,0.27239 4.90304,0.54478l1.36196,0.27239l0,5.9926l-2.17913,-0.81717c-1.08956,-0.27239 -2.45152,-0.54478 -3.81347,-0.54478c-3.81347,0 -5.9926,1.36196 -5.9926,7.62695l0,25.05997l-0.27239,0z" class="st0"/>
   <path stroke="null" id="svg_318" d="m163.79723,307.74728l-5.9926,0c-5.72021,0 -8.71651,-2.72391 -8.71651,-8.71651l0,-31.32497c0,-5.72021 2.72391,-8.71651 8.71651,-8.71651l5.9926,0c7.35456,0 12.52999,1.36196 15.52629,4.35826c2.9963,2.9963 4.63065,7.89934 4.63065,15.2539l0,9.26129c0,7.35456 -1.36196,12.2576 -4.63065,15.2539c-2.9963,3.26869 -8.17173,4.63065 -15.52629,4.63065zm-6.26499,-43.03778c-1.90674,0 -2.45152,0.54478 -2.45152,2.45152l0,32.14214c0,1.90674 0.54478,2.45152 2.45152,2.45152l6.26499,0c7.08217,0 10.07847,-1.63435 11.44042,-2.72391c1.90674,-1.90674 2.72391,-5.72021 2.72391,-11.16803l0,-9.26129c0,-5.44782 -1.08956,-8.9889 -2.72391,-11.16803c-1.90674,-1.90674 -5.72021,-2.72391 -11.44042,-2.72391l-6.26499,0z" class="st0"/>
   <path stroke="null" id="svg_319" d="m205.20066,308.29207c-11.16803,0 -16.34346,-4.90304 -16.34346,-15.79868l0,-7.08217c0,-10.35086 5.44782,-15.79868 15.2539,-15.79868c9.80608,0 15.2539,5.44782 15.2539,14.70911c0,2.17913 -0.27239,4.08587 -0.54478,5.72021l-0.27239,1.36196l-23.97041,0l0,1.08956c0,7.35456 2.72391,9.80608 10.35086,9.80608c4.08587,0 7.89934,-0.54478 10.89564,-1.90674l2.45152,-1.08956l0,5.9926l-1.08956,0.54478c-3.54108,1.90674 -7.62695,2.45152 -11.9852,2.45152zm-10.62325,-22.33606l19.06737,0l0,-1.63435c0,-6.26499 -2.9963,-9.26129 -9.53369,-9.26129c-6.53738,0 -9.53369,2.9963 -9.53369,9.26129l0,1.63435z" class="st0"/>
   <path stroke="null" id="svg_320" d="m274.11559,307.74728l-5.72021,0l0,-23.97041c0,-6.26499 -2.17913,-8.17173 -8.17173,-8.17173c-5.9926,0 -8.17173,2.17913 -8.17173,8.17173l0,23.97041l-5.72021,0l0,-23.97041c0,-6.26499 -2.17913,-8.17173 -8.17173,-8.17173c-5.9926,0 -8.17173,2.17913 -8.17173,8.17173l0,23.97041l-5.72021,0l0,-23.97041c0,-9.26129 4.63065,-13.89194 13.89194,-13.89194c5.17543,0 8.9889,1.63435 10.89564,4.63065c2.17913,-2.9963 5.9926,-4.63065 10.89564,-4.63065c9.26129,0 13.89194,4.63065 13.89194,13.89194l0,23.97041l0.27239,0z" class="st0"/>
   <path stroke="null" id="svg_321" d="m291.821,308.29207c-3.54108,0 -6.53738,-0.81717 -9.26129,-2.72391c-2.72391,-1.90674 -4.35826,-4.90304 -4.35826,-8.9889c0,-10.07847 8.44412,-11.44042 16.07107,-11.44042l7.35456,0l0,-3.54108c0,-3.81347 -1.36196,-6.26499 -8.71651,-6.26499c-3.54108,0 -6.53738,0.54478 -9.26129,1.36196l-2.17913,0.81717l0,-6.26499l1.36196,-0.27239c2.9963,-0.81717 6.26499,-1.36196 10.35086,-1.36196c12.2576,0 14.70911,6.53738 14.70911,11.71281l0,14.16433c0,11.44042 -8.71651,12.80238 -16.07107,12.80238zm2.9963,-17.43302c-8.71651,0 -10.35086,2.17913 -10.35086,5.9926c0,3.81347 2.45152,5.9926 7.62695,5.9926c8.71651,0 10.07847,-2.17913 10.07847,-6.80978l0,-4.90304l-7.35456,0l0,-0.27239z" class="st0"/>
   <path stroke="null" id="svg_322" d="m343.5753,307.74728l-5.72021,0l0,-23.97041c0,-5.17543 -1.63435,-8.17173 -9.53369,-8.17173s-9.53369,2.9963 -9.53369,8.17173l0,23.97041l-5.72021,0l0,-23.97041c0,-9.26129 5.17543,-13.89194 15.2539,-13.89194c10.07847,0 15.2539,4.63065 15.2539,13.89194l0,23.97041z" class="st0"/>
   <path stroke="null" id="svg_323" d="m364.8218,308.29207c-10.89564,0 -16.07107,-5.17543 -16.07107,-15.79868l0,-7.08217c0,-10.62325 5.17543,-15.79868 16.07107,-15.79868c4.35826,0 7.62695,0.81717 10.07847,2.72391l0,-17.16063l5.72021,0l0,37.31757c0,10.62325 -5.17543,15.79868 -15.79868,15.79868zm0,-32.95931c-4.08587,0 -6.53738,0.81717 -8.17173,2.17913c-1.36196,1.63435 -2.17913,4.08587 -2.17913,7.89934l0,7.08217c0,7.62695 2.45152,10.07847 10.07847,10.07847c7.62695,0 10.07847,-2.45152 10.07847,-10.07847l0,-7.08217c0,-3.54108 -0.81717,-6.26499 -2.17913,-7.89934c-1.08956,-1.36196 -3.81347,-2.17913 -7.62695,-2.17913z" class="st0"/>
   <path stroke="null" id="svg_324" d="m444.08758,308.29207c-6.80978,0 -11.71281,-1.63435 -14.43672,-4.90304c-2.72391,-3.26869 -4.08587,-7.89934 -4.08587,-14.70911l0,-10.35086c0,-6.53738 1.36196,-11.44042 4.08587,-14.70911c2.72391,-3.26869 7.62695,-4.90304 14.43672,-4.90304c6.80978,0 11.71281,1.63435 14.43672,4.90304c2.72391,3.26869 4.08587,8.17173 4.08587,14.70911l0,10.35086c0,6.80978 -1.36196,11.44042 -4.08587,14.70911c-2.72391,3.26869 -7.62695,4.90304 -14.43672,4.90304zm0,-44.12734c-4.90304,0 -8.44412,1.08956 -9.80608,2.9963c-1.63435,2.17913 -2.45152,5.72021 -2.45152,10.89564l0,10.35086c0,5.17543 0.81717,8.71651 2.45152,10.89564c1.63435,1.90674 4.90304,2.9963 9.80608,2.9963c4.90304,0 8.44412,-1.08956 10.07847,-2.9963c1.63435,-2.17913 2.45152,-5.72021 2.45152,-10.89564l0,-10.35086c0,-4.90304 -0.81717,-8.71651 -2.45152,-10.89564c-1.63435,-1.90674 -5.17543,-2.9963 -10.07847,-2.9963z" class="st0"/>
   <path stroke="null" id="svg_325" d="m482.7671,308.29207c-10.07847,0 -15.2539,-4.63065 -15.2539,-13.89194l0,-23.97041l5.72021,0l0,23.97041c0,5.17543 1.63435,8.44412 9.53369,8.44412c7.89934,0 9.53369,-2.9963 9.53369,-8.44412l0,-23.97041l5.72021,0l0,23.97041c0,9.26129 -5.17543,13.89194 -15.2539,13.89194z" class="st0"/>
   <path stroke="null" id="svg_326" d="m508.91664,307.74728l-5.72021,0l0,-24.78758c0,-10.89564 6.53738,-13.34716 11.71281,-13.34716c1.63435,0 3.26869,0.27239 4.63065,0.54478l1.36196,0.27239l0,5.9926l-2.17913,-0.81717c-1.08956,-0.27239 -2.45152,-0.54478 -3.81347,-0.54478c-3.81347,0 -5.9926,1.36196 -5.9926,7.62695l0,25.05997z" class="st0"/>
   <path stroke="null" id="svg_327" d="m566.11875,307.74728l-22.06367,0c-5.72021,0 -8.71651,-2.72391 -8.71651,-8.71651l0,-31.32497c0,-5.72021 2.72391,-8.71651 8.71651,-8.71651l22.06367,0l0,5.72021l-22.06367,0c-1.90674,0 -2.45152,0.54478 -2.45152,2.45152l0,11.9852l21.79128,0l0,5.72021l-21.79128,0l0,14.43672c0,1.90674 0.54478,2.45152 2.45152,2.45152l22.06367,0l0,5.9926z" class="st0"/>
   <path stroke="null" id="svg_328" d="m603.16393,307.74728l-6.80978,0l-9.80608,-15.2539c-0.81717,-1.08956 -1.36196,-1.63435 -1.63435,-1.63435c-0.27239,0 -1.08956,0.54478 -1.63435,1.63435l-9.80608,15.2539l-6.80978,0l10.89564,-16.61585c0.81717,-1.36196 1.63435,-2.17913 2.17913,-2.9963c-0.81717,-0.81717 -1.63435,-1.90674 -2.45152,-2.9963l-9.26129,-14.70911l6.80978,0l8.71651,13.61955c0.81717,1.36196 1.36196,1.36196 1.63435,1.36196c0.54478,0 1.08956,-0.54478 1.63435,-1.36196l8.71651,-13.61955l6.80978,0l-9.26129,14.70911c-0.81717,1.36196 -1.63435,2.17913 -2.17913,2.9963c0.81717,0.81717 1.36196,1.90674 2.17913,2.9963l10.07847,16.61585z" class="st0"/>
   <path stroke="null" id="svg_329" d="m652.7391,308.29207c-11.16803,0 -16.34346,-4.90304 -16.34346,-15.79868l0,-7.08217c0,-10.35086 5.44782,-15.79868 15.52629,-15.79868c9.80608,0 15.2539,5.44782 15.2539,14.70911c0,2.17913 -0.27239,4.08587 -0.54478,5.72021l-0.27239,1.36196l-24.2428,0l0,1.08956c0,7.35456 2.72391,9.80608 10.35086,9.80608c4.08587,0 7.89934,-0.54478 10.89564,-1.90674l2.45152,-1.08956l0,5.9926l-1.08956,0.54478c-3.54108,1.63435 -7.35456,2.45152 -11.9852,2.45152zm-10.35086,-22.33606l19.06737,0l0,-1.63435c0,-6.26499 -2.9963,-9.26129 -9.53369,-9.26129c-6.53738,0 -9.53369,2.9963 -9.53369,9.26129l0,1.63435z" class="st0"/>
   <path stroke="null" id="svg_330" d="m680.52298,308.01968c-2.45152,0 -8.17173,-0.81717 -8.17173,-9.80608l0,-42.76539l5.72021,0l0,42.76539c0,4.08587 1.36196,4.08587 2.17913,4.08587c0.81717,0 1.36196,0 1.63435,-0.27239l2.45152,-1.36196l0,6.26499l-1.08956,0.54478c-0.54478,0.27239 -1.63435,0.54478 -2.72391,0.54478z" class="st0"/>
   <path stroke="null" id="svg_331" d="m694.9597,308.01968c-2.45152,0 -8.17173,-0.81717 -8.17173,-9.80608l0,-42.76539l5.72021,0l0,42.76539c0,4.08587 1.36196,4.08587 2.17913,4.08587c0.81717,0 1.36196,0 1.63435,-0.27239l2.45152,-1.36196l0,6.26499l-1.08956,0.54478c-0.54478,0.27239 -1.36196,0.54478 -2.72391,0.54478z" class="st0"/>
   <path stroke="null" id="svg_332" d="m717.02337,308.29207c-11.16803,0 -16.34346,-4.90304 -16.34346,-15.79868l0,-7.08217c0,-10.35086 5.44782,-15.79868 15.2539,-15.79868c9.80608,0 15.2539,5.44782 15.2539,14.70911c0,2.45152 -0.27239,4.35826 -0.54478,5.72021l-0.27239,1.36196l-23.97041,0l0,1.08956c0,7.35456 2.72391,9.80608 10.35086,9.80608c4.08587,0 7.89934,-0.54478 10.89564,-1.90674l2.45152,-1.08956l0,5.9926l-1.08956,0.81717c-3.81347,1.63435 -7.62695,2.17913 -11.9852,2.17913zm-10.62325,-22.33606l19.06737,0l0,-1.63435c0,-6.26499 -2.9963,-9.26129 -9.53369,-9.26129c-6.53738,0 -9.53369,2.9963 -9.53369,9.26129l0,1.63435z" class="st0"/>
   <path stroke="null" id="svg_333" d="m766.59854,307.74728l-5.72021,0l0,-23.97041c0,-5.17543 -1.63435,-8.17173 -9.53369,-8.17173c-7.89934,0 -9.53369,2.9963 -9.53369,8.17173l0,23.97041l-5.72021,0l0,-23.97041c0,-9.26129 5.17543,-13.89194 15.2539,-13.89194c10.07847,0 15.2539,4.63065 15.2539,13.89194l0,23.97041z" class="st0"/>
   <path stroke="null" id="svg_334" d="m788.38982,308.29207c-11.16803,0 -16.61585,-5.17543 -16.61585,-15.79868l0,-7.08217c0,-10.35086 5.44782,-15.79868 16.61585,-15.79868c3.26869,0 6.26499,0.54478 8.9889,1.90674l0.81717,0.54478l0,6.26499l-2.45152,-1.36196c-2.17913,-1.08956 -4.63065,-1.63435 -7.35456,-1.63435c-8.9889,0 -10.62325,3.81347 -10.62325,10.07847l0,7.08217c0,7.62695 2.72391,10.07847 10.89564,10.07847c2.9963,0 5.72021,-0.54478 7.89934,-1.63435l2.45152,-1.36196l0,6.26499l-1.08956,0.54478c-2.72391,1.36196 -5.9926,1.90674 -9.53369,1.90674z" class="st0"/>
   <path stroke="null" id="svg_335" d="m622.2313,308.29207c-11.16803,0 -16.61585,-5.17543 -16.61585,-15.79868l0,-7.08217c0,-10.35086 5.44782,-15.79868 16.61585,-15.79868c3.26869,0 6.26499,0.54478 8.9889,1.90674l0.81717,0.54478l0,6.26499l-2.45152,-1.36196c-2.17913,-1.08956 -4.63065,-1.63435 -7.35456,-1.63435c-8.9889,0 -10.62325,3.81347 -10.62325,10.07847l0,7.08217c0,7.62695 2.72391,10.07847 10.89564,10.07847c2.9963,0 5.72021,-0.54478 7.89934,-1.63435l2.45152,-1.36196l0,6.26499l-1.08956,0.54478c-2.72391,1.36196 -5.72021,1.90674 -9.53369,1.90674z" class="st0"/>
   <path stroke="null" id="svg_336" d="m817.26327,308.29207c-11.16803,0 -16.34346,-4.90304 -16.34346,-15.79868l0,-7.08217c0,-10.35086 5.44782,-15.79868 15.52629,-15.79868c9.80608,0 15.2539,5.44782 15.2539,14.70911c0,2.17913 -0.27239,4.08587 -0.54478,5.72021l-0.27239,1.36196l-23.97041,0l0,1.08956c0,7.35456 2.72391,9.80608 10.35086,9.80608c4.08587,0 7.89934,-0.54478 10.89564,-1.90674l2.45152,-1.08956l0,5.9926l-1.08956,0.54478c-4.08587,1.90674 -7.89934,2.45152 -12.2576,2.45152zm-10.62325,-22.33606l19.06737,0l0,-1.63435c0,-6.26499 -2.9963,-9.26129 -9.53369,-9.26129c-6.53738,0 -9.53369,2.9963 -9.53369,9.26129l0,1.63435z" class="st0"/>
   <path stroke="null" id="svg_337" d="m410.31109,288.9523c0,3.81347 -2.9963,6.80978 -6.80978,6.80978c-3.81347,0 -6.80978,-2.9963 -6.80978,-6.80978c0,-3.81347 2.9963,-6.80978 6.80978,-6.80978c3.81347,0 6.80978,2.9963 6.80978,6.80978z" class="st0"/>
   <path stroke="null" id="svg_340" d="m505.92034,218.13064l-93.9749,0l0,-210.01347l21.51889,0l0,188.49458l79.81057,0l-7.35456,21.51889z" class="st0"/>
   <path fill="black" id="svg_341" d="m674.53038,29.90845l97.78837,0c20.15693,0 36.5004,16.34346 36.5004,36.5004c0,20.15693 -16.34346,36.5004 -36.5004,36.5004l-68.91493,0l7.08217,22.60845l61.56037,0c32.68692,0 59.10885,-26.42193 59.10885,-59.10885c0,-32.68692 -26.42193,-59.10885 -59.10885,-59.10885l-105.68771,0l8.17173,22.60845z" class="st0"/>
   <path stroke="null" id="svg_342" d="m818.08044,121.70422c-0.27239,0.27239 -9.53369,8.71651 -19.06737,12.52999l0,0c5.9926,6.53738 9.80608,15.2539 9.80608,24.78758c0,20.15693 -16.34346,36.5004 -36.5004,36.5004l-81.98969,0l7.08217,21.79128l0.54478,1.08956l74.36275,0c32.68692,0 59.10885,-26.42193 59.10885,-59.10885c0,-14.43672 -5.17543,-27.51149 -13.34716,-37.58996z" class="st0"/>
   <path stroke="null" id="svg_344" d="m179.8683,195.52219l-113.58705,0c-20.15693,0 -36.5004,-16.34346 -36.5004,-36.5004s16.34346,-36.5004 36.5004,-36.5004l64.82906,0l0,-22.60845l-64.82906,0c-32.68692,0 -59.10885,26.42193 -59.10885,59.10885c0,32.68692 26.42193,59.10885 59.10885,59.10885l113.58705,0l0,-22.60845z" class="st0"/>
   <path stroke="null" id="svg_345" d="m66.55364,7.3c-32.68692,0 -59.10885,26.42193 -59.10885,59.10885c0,13.89194 4.90304,26.42193 12.80238,36.5004c0.27239,0 7.35456,-6.26499 19.06737,-12.2576l0,0c-5.72021,-6.53738 -9.26129,-14.98151 -9.26129,-24.2428c0,-20.15693 16.34346,-36.5004 36.5004,-36.5004l77.90383,0l0,-22.60845l-77.90383,0z" class="st0"/>
  </g>
 </g>
</svg>
